<?xml version="1.0" standalone="no"?>
<!DOCTYPE svg PUBLIC "-//W3C//DTD SVG 20010904//EN"
 "http://www.w3.org/TR/2001/REC-SVG-20010904/DTD/svg10.dtd">
<svg version="1.0" xmlns="http://www.w3.org/2000/svg"
 width="269.000000pt" height="46.000000pt" viewBox="0 0 269.000000 46.000000"
 preserveAspectRatio="xMidYMid meet">

<g transform="translate(0.000000,46.000000) scale(0.100000,-0.100000)"
fill="#000000" stroke="none">
<path d="M60 345 l0 -75 160 0 160 0 0 75 0 75 -160 0 -160 0 0 -75z m250 0
c0 -25 -1 -25 -90 -25 -89 0 -90 0 -90 25 0 25 1 25 90 25 89 0 90 0 90 -25z"/>
<path d="M639 388 c-3 -110 -3 -113 -26 -116 -35 -5 -32 -52 2 -52 22 0 25 -4
25 -35 0 -19 -2 -35 -5 -35 -2 0 -20 24 -40 52 -29 44 -35 62 -35 105 0 50 1
53 25 53 20 0 25 5 25 25 0 25 -1 25 -85 25 -84 0 -85 0 -85 -25 0 -21 5 -25
31 -25 l30 0 -6 -47 c-11 -83 -26 -142 -41 -154 -13 -11 -21 -79 -9 -79 19 0
63 32 75 54 18 34 23 33 43 -10 16 -34 18 -34 39 -20 31 22 38 20 38 -9 0 -21
5 -25 30 -25 l30 0 0 175 0 175 -30 0 c-27 0 -30 -3 -31 -32z"/>
<path d="M730 240 l0 -180 30 0 30 0 0 180 0 180 -30 0 -30 0 0 -180z"/>
<path d="M968 395 c4 -22 10 -25 43 -25 l39 0 -13 -32 c-7 -18 -27 -42 -45
-53 -23 -15 -31 -28 -32 -49 0 -27 2 -28 32 -22 17 3 46 17 63 31 28 20 35 22
51 11 72 -49 70 -49 87 -22 16 24 16 25 -32 60 -39 27 -48 39 -44 55 4 17 13
21 44 21 35 0 39 3 39 25 l0 25 -119 0 -118 0 5 -25z"/>
<path d="M1230 315 l0 -105 35 0 35 0 0 105 0 105 -35 0 -35 0 0 -105z"/>
<path d="M1370 395 c0 -22 4 -25 35 -25 25 0 35 -4 35 -15 0 -19 -47 -65 -66
-65 -9 0 -14 -12 -14 -31 0 -30 1 -31 33 -25 17 3 45 16 62 28 l29 22 48 -27
48 -27 12 25 c6 14 9 27 7 29 -2 2 -23 15 -46 30 -50 31 -49 56 2 56 27 0 34
4 37 25 l5 25 -113 0 -114 0 0 -25z"/>
<path d="M1630 395 c0 -18 -5 -25 -19 -25 -10 0 -21 -9 -24 -19 -6 -24 0 -31
25 -31 15 0 18 -8 18 -45 0 -45 0 -45 35 -45 l35 0 0 95 0 95 -35 0 c-31 0
-35 -3 -35 -25z"/>
<path d="M1935 411 c-63 -27 -79 -102 -32 -149 24 -23 36 -27 87 -27 51 0 63
4 87 27 61 61 20 148 -74 154 -26 2 -57 0 -68 -5z m89 -57 c9 -8 16 -22 16
-29 0 -20 -28 -45 -50 -45 -22 0 -50 25 -50 45 0 20 28 45 50 45 10 0 26 -7
34 -16z"/>
<path d="M2150 325 l0 -95 35 0 35 0 0 95 0 95 -35 0 -35 0 0 -95z"/>
<path d="M2280 395 c0 -24 2 -25 68 -25 54 0 69 -3 69 -15 0 -12 -15 -15 -69
-15 l-68 0 0 -65 0 -65 99 0 c113 0 131 4 131 31 0 12 7 19 20 19 16 0 20 -7
20 -30 0 -28 3 -30 35 -30 l35 0 0 110 0 110 -35 0 c-24 0 -35 -5 -35 -15 0
-8 -9 -15 -20 -15 -15 0 -20 -7 -20 -25 0 -18 5 -25 20 -25 11 0 20 -7 20 -15
0 -8 -9 -15 -20 -15 -13 0 -20 -7 -20 -19 0 -25 -19 -31 -96 -31 -57 0 -64 2
-64 20 0 18 7 20 65 20 l65 0 0 60 0 60 -100 0 -100 0 0 -25z"/>
<path d="M40 225 c0 -24 2 -25 70 -25 l70 0 0 -30 c0 -28 3 -30 35 -30 32 0
35 2 35 30 l0 30 75 0 c73 0 75 1 75 25 l0 25 -180 0 -180 0 0 -25z"/>
<path d="M1380 140 l0 -80 160 0 160 0 0 80 0 80 -30 0 c-20 0 -30 -5 -30 -15
0 -12 -17 -15 -95 -15 -78 0 -95 3 -95 15 0 10 -11 15 -35 15 l-35 0 0 -80z
m260 -15 c0 -12 -17 -15 -95 -15 -78 0 -95 3 -95 15 0 12 17 15 95 15 78 0 95
-3 95 -15z"/>
<path d="M1900 140 l0 -80 160 0 160 0 0 80 0 80 -35 0 c-24 0 -35 -5 -35 -15
0 -12 -17 -15 -90 -15 -73 0 -90 3 -90 15 0 10 -11 15 -35 15 l-35 0 0 -80z
m250 -15 c0 -12 -17 -15 -90 -15 -73 0 -90 3 -90 15 0 12 17 15 90 15 73 0 90
-3 90 -15z"/>
<path d="M980 175 l0 -25 125 0 125 0 0 -45 c0 -45 0 -45 35 -45 l35 0 0 70 0
70 -160 0 -160 0 0 -25z"/>
<path d="M2300 165 l0 -25 125 0 125 0 0 -40 c0 -39 1 -40 35 -40 l35 0 0 65
0 65 -160 0 -160 0 0 -25z"/>
<path d="M60 115 l0 -55 160 0 160 0 0 25 0 25 -125 0 -125 0 0 30 c0 28 -3
30 -35 30 l-35 0 0 -55z"/>
</g>
</svg>
