<?xml version="1.0" standalone="no"?>
<!DOCTYPE svg PUBLIC "-//W3C//DTD SVG 20010904//EN"
 "http://www.w3.org/TR/2001/REC-SVG-20010904/DTD/svg10.dtd">
<svg version="1.0" xmlns="http://www.w3.org/2000/svg"
 width="776.000000pt" height="233.000000pt" viewBox="0 0 776.000000 233.000000"
 preserveAspectRatio="xMidYMid meet">

<g transform="translate(0.000000,233.000000) scale(0.100000,-0.100000)"
fill="#000000" stroke="none">
<path d="M3060 1405 l0 -265 60 0 60 0 0 265 0 265 -60 0 -60 0 0 -265z"/>
<path d="M4080 1200 l0 -470 65 0 65 0 0 470 0 470 -65 0 -65 0 0 -470z"/>
<path d="M3898 1488 l-3 -173 -60 -1 -60 -1 -3 -51 -3 -52 65 0 66 0 0 -225 0
-225 60 0 60 0 0 450 0 450 -60 0 -60 0 -2 -172z"/>
<path d="M2450 1413 l0 -216 246 6 c135 3 247 7 249 9 2 2 1 24 -2 50 l-5 47
-184 -6 -184 -6 0 116 0 117 175 0 175 0 0 50 0 50 -235 0 -235 0 0 -217z"/>
<path d="M4760 1552 c0 -47 -6 -67 -28 -103 -52 -82 -148 -147 -262 -180 -25
-7 -47 -14 -49 -15 -2 -2 12 -24 30 -49 39 -54 43 -54 154 0 71 34 172 111
201 153 l15 22 69 -63 c45 -41 99 -79 152 -105 121 -60 119 -60 156 -8 18 24
32 46 32 49 0 3 -21 10 -47 17 -165 41 -293 167 -293 288 l0 52 -65 0 -65 0 0
-58z"/>
<path d="M3430 1287 l0 -308 178 6 c233 8 222 5 222 60 0 24 -3 46 -7 48 -5 2
-60 1 -123 -3 -63 -3 -123 -4 -132 -2 -15 4 -18 17 -18 88 0 60 4 84 13 85 6
0 44 1 82 2 l70 2 0 50 0 50 -82 3 -83 3 0 59 0 60 120 0 120 0 0 50 0 49
-180 3 -180 3 0 -308z"/>
<path d="M1490 1540 l0 -50 265 0 266 0 -3 -62 -3 -63 -285 -14 c-157 -7 -286
-14 -287 -16 -6 -4 28 -105 35 -105 4 0 115 7 247 15 132 8 253 15 269 15 l29
0 -7 -104 -7 -104 56 -7 c31 -4 58 -6 59 -4 9 9 26 294 26 417 l0 132 -330 0
-330 0 0 -50z"/>
<path d="M5520 1350 l0 -240 316 0 315 0 -3 53 -3 52 -240 2 c-132 2 -246 3
-252 3 -8 0 -13 15 -13 40 l0 40 235 0 235 0 0 55 0 54 -232 0 -233 -1 -3 41
-3 41 250 0 251 0 0 50 0 50 -310 0 -310 0 0 -240z"/>
<path d="M1718 1073 l-3 -108 -163 0 -162 0 0 -52 0 -53 435 0 435 0 0 53 0
52 -197 -2 c-108 0 -202 1 -210 4 -10 4 -13 32 -13 109 l0 104 -60 0 -59 0 -3
-107z"/>
<path d="M2780 1120 c-127 -27 -200 -95 -200 -186 0 -122 113 -194 304 -194
119 0 193 21 251 72 108 95 69 231 -82 288 -66 25 -202 35 -273 20z m181 -100
c63 -12 109 -50 109 -90 0 -53 -74 -90 -181 -90 -88 0 -144 16 -170 48 -70 89
68 165 242 132z"/>
<path d="M4390 920 l0 -50 435 0 435 0 0 50 0 50 -435 0 -435 0 0 -50z"/>
<path d="M5390 910 l0 -50 435 0 435 0 0 50 0 50 -435 0 -435 0 0 -50z"/>
</g>
</svg>
