<?xml version="1.0" standalone="no"?>
<!DOCTYPE svg PUBLIC "-//W3C//DTD SVG 20010904//EN"
 "http://www.w3.org/TR/2001/REC-SVG-20010904/DTD/svg10.dtd">
<svg version="1.0" xmlns="http://www.w3.org/2000/svg"
 width="272.000000pt" height="51.000000pt" viewBox="0 0 272.000000 51.000000"
 preserveAspectRatio="xMidYMid meet">

<g transform="translate(0.000000,51.000000) scale(0.100000,-0.100000)"
fill="#000000" stroke="none">
<path d="M1077 444 c-3 -3 -3 -12 0 -20 4 -11 -5 -14 -36 -14 -37 0 -41 -2
-41 -25 0 -22 4 -25 35 -25 19 0 35 -2 35 -5 0 -17 -35 -54 -56 -59 -18 -5
-24 -13 -24 -32 0 -24 3 -26 31 -20 17 3 44 15 59 26 l29 21 49 -25 c47 -24
49 -24 60 -5 18 28 16 32 -33 58 -25 13 -45 28 -45 32 0 5 20 9 45 9 41 0 45
2 45 25 0 23 -4 25 -40 25 -33 0 -40 3 -40 20 0 16 -7 20 -33 20 -19 0 -36 -3
-40 -6z"/>
<path d="M90 365 l0 -75 160 0 160 0 0 75 0 75 -160 0 -160 0 0 -75z m250 0
c0 -25 -1 -25 -90 -25 -89 0 -90 0 -90 25 0 25 1 25 90 25 89 0 90 0 90 -25z"/>
<path d="M670 365 c0 -72 -1 -75 -24 -75 -19 0 -22 -4 -18 -25 3 -16 11 -25
23 -25 15 0 19 -7 19 -35 0 -19 -2 -35 -4 -35 -3 0 -21 27 -41 61 -33 54 -36
65 -30 105 5 38 9 44 31 44 19 0 24 5 24 25 0 25 -1 25 -85 25 -84 0 -85 0
-85 -25 0 -20 5 -25 25 -25 22 0 25 -4 25 -34 0 -60 -20 -139 -40 -161 -25
-27 -27 -85 -3 -85 9 0 33 18 54 40 l38 40 16 -30 c18 -34 31 -37 57 -13 17
15 18 14 18 -15 0 -30 2 -32 35 -32 l35 0 0 175 0 175 -35 0 -35 0 0 -75z"/>
<path d="M760 260 l0 -180 35 0 35 0 0 180 0 180 -35 0 -35 0 0 -180z"/>
<path d="M1257 373 c1 -38 2 -85 2 -105 1 -35 3 -38 31 -38 27 0 30 3 31 33 1
17 1 35 0 40 0 4 10 7 24 7 20 0 25 5 25 25 0 20 -5 25 -25 25 -22 0 -25 4
-25 40 0 38 -1 40 -32 40 l-33 0 2 -67z"/>
<path d="M1459 425 c-36 -20 -59 -82 -59 -160 0 -80 23 -141 61 -160 98 -51
174 52 155 209 -13 101 -84 151 -157 111z m72 -51 c18 -22 24 -172 7 -204 -19
-35 -46 -37 -58 -5 -13 34 -13 166 0 199 11 29 31 33 51 10z"/>
<path d="M1660 260 l0 -180 35 0 35 0 0 80 c0 73 2 80 20 80 15 0 20 7 20 25
0 18 -5 25 -20 25 -18 0 -20 7 -20 75 l0 75 -35 0 -35 0 0 -180z"/>
<path d="M2590 260 l0 -180 30 0 30 0 0 180 0 180 -30 0 -30 0 0 -180z"/>
<path d="M1930 320 l0 -110 60 0 60 0 0 -35 0 -35 -70 0 c-68 0 -70 -1 -70
-25 l0 -25 180 0 180 0 0 25 c0 24 -2 25 -75 25 l-75 0 3 35 2 35 63 0 62 0 0
110 0 110 -35 0 c-32 0 -35 -2 -35 -30 l0 -30 -90 0 -90 0 0 30 c0 28 -3 30
-35 30 l-35 0 0 -110z m250 -30 l0 -30 -90 0 -90 0 0 30 0 30 90 0 90 0 0 -30z"/>
<path d="M2320 405 c0 -24 2 -25 70 -25 79 0 79 1 59 -90 -14 -64 -49 -107
-95 -116 -31 -6 -34 -9 -34 -40 0 -29 4 -34 23 -34 39 1 102 36 135 75 35 43
52 106 52 195 l0 60 -105 0 -105 0 0 -25z"/>
<path d="M70 245 c0 -24 2 -25 75 -25 l75 0 0 -30 c0 -28 3 -30 35 -30 32 0
35 2 35 30 l0 30 70 0 c68 0 70 1 70 25 l0 25 -180 0 -180 0 0 -25z"/>
<path d="M1010 195 c0 -24 3 -25 58 -25 53 -1 56 -2 37 -16 -11 -8 -36 -17
-57 -21 -32 -5 -38 -9 -38 -31 0 -24 1 -24 52 -18 28 4 62 13 76 20 20 11 37
10 100 -5 83 -19 92 -18 92 11 0 14 -11 22 -42 30 -81 20 -88 29 -25 29 54 1
57 2 57 26 l0 25 -155 0 -155 0 0 -25z"/>
<path d="M90 135 l0 -55 165 0 165 0 0 25 0 25 -130 0 c-71 0 -129 3 -129 8 7
40 -2 52 -36 52 l-35 0 0 -55z"/>
</g>
</svg>
