<?xml version="1.0" standalone="no"?>
<!DOCTYPE svg PUBLIC "-//W3C//DTD SVG 20010904//EN"
 "http://www.w3.org/TR/2001/REC-SVG-20010904/DTD/svg10.dtd">
<svg version="1.0" xmlns="http://www.w3.org/2000/svg"
 width="253.000000pt" height="54.000000pt" viewBox="0 0 253.000000 54.000000"
 preserveAspectRatio="xMidYMid meet">

<g transform="translate(0.000000,54.000000) scale(0.100000,-0.100000)"
fill="#000000" stroke="none">
<path d="M88 425 c-5 -24 -4 -25 53 -25 l59 0 0 -145 0 -145 35 0 35 0 0 145
0 145 54 0 c49 0 54 2 58 25 l5 25 -147 0 -148 0 -4 -25z"/>
<path d="M1351 428 c-54 -28 -81 -62 -90 -114 -15 -82 16 -144 89 -182 79 -40
176 -20 233 47 39 46 35 61 -13 61 -28 0 -40 -4 -40 -14 0 -8 -14 -26 -32 -41
-26 -22 -39 -26 -71 -22 -48 7 -74 29 -89 79 -13 45 0 104 31 132 46 42 127
27 153 -30 9 -19 19 -24 50 -24 l38 0 -13 32 c-35 85 -157 123 -246 76z"/>
<path d="M990 396 c0 -28 -4 -35 -22 -38 -15 -2 -23 -10 -23 -23 0 -13 8 -21
23 -23 21 -3 22 -7 22 -103 l0 -99 40 0 40 0 0 100 0 100 25 0 c20 0 25 5 25
25 0 20 -5 25 -25 25 -22 0 -25 4 -25 35 0 34 -1 35 -40 35 -39 0 -40 -1 -40
-34z"/>
<path d="M474 344 c-87 -42 -86 -177 2 -219 61 -29 146 -6 174 45 10 18 8 20
-28 20 -24 0 -45 -6 -52 -16 -18 -21 -60 -14 -78 14 l-14 22 91 0 91 0 0 30
c0 92 -99 147 -186 104z m101 -54 c24 -27 17 -32 -44 -28 -51 3 -51 3 -36 26
20 27 56 28 80 2z"/>
<path d="M744 346 c-33 -15 -44 -33 -44 -72 0 -29 29 -49 89 -63 48 -10 67
-24 57 -40 -10 -16 -52 -13 -70 4 -8 8 -28 15 -45 15 -60 0 -23 -63 43 -76 79
-14 146 21 146 76 0 35 -25 54 -89 69 -48 10 -67 24 -57 40 10 16 52 13 66 -4
14 -16 80 -21 80 -6 0 6 -10 22 -23 37 -28 32 -104 43 -153 20z"/>
<path d="M1698 344 c-78 -42 -76 -178 2 -219 35 -18 73 -19 103 -4 16 9 22 9
25 0 2 -6 19 -11 38 -11 l34 0 0 125 0 125 -34 0 c-19 0 -36 -5 -38 -11 -3 -9
-9 -9 -25 0 -29 15 -72 13 -105 -5z m112 -54 c40 -40 14 -130 -38 -130 -10 0
-27 6 -38 14 -27 20 -27 102 0 122 27 19 52 18 76 -6z"/>
<path d="M1994 346 c-33 -15 -44 -33 -44 -72 0 -30 30 -50 98 -65 41 -8 52
-15 50 -27 -4 -22 -51 -27 -68 -8 -16 20 -80 22 -80 3 0 -24 47 -59 88 -64 72
-10 142 29 142 79 0 28 -39 57 -86 64 -24 3 -51 12 -61 20 -16 12 -16 15 -3
24 22 14 46 12 64 -5 18 -19 76 -20 76 -2 0 49 -112 82 -176 53z"/>
<path d="M2273 346 c-60 -27 -82 -120 -43 -183 23 -38 80 -59 133 -49 35 6 87
46 87 66 0 16 -66 12 -80 -5 -17 -20 -53 -19 -73 3 -10 10 -17 22 -17 25 0 4
41 7 90 7 l90 0 0 35 c0 54 -52 106 -110 111 -27 3 -58 -2 -77 -10z m99 -53
c29 -26 21 -33 -37 -33 -59 0 -64 4 -38 32 20 22 51 23 75 1z"/>
</g>
</svg>
